<?xml version="1.0" encoding="utf-8"?>
<!-- Generator: Adobe Illustrator 23.1.0, SVG Export Plug-In . SVG Version: 6.00 Build 0)  -->
<svg version="1.1" id="Capa_1" xmlns="http://www.w3.org/2000/svg" xmlns:xlink="http://www.w3.org/1999/xlink" x="0px" y="0px"
	 viewBox="0 0 1242.7 302.8" style="enable-background:new 0 0 1242.7 302.8;" xml:space="preserve">
<style type="text/css">
	.st0{fill:#FFFFFF;}
	.st1{fill:url(#SVGID_1_);}
	.st2{enable-background:new    ;}
</style>
<g>
	<g>
		<path class="st0" d="M212,166.6V212h-30.3v-45.4c0-25.1-20.3-45.4-45.4-45.4c9.5,12.6,15.1,28.4,15.1,45.4V212h-30.3v-45.4
			c0-13.4-5.8-25.5-15.1-33.8c-8-7.2-18.6-11.6-30.3-11.6l0,0c-25.1,0-45.4,20.3-45.4,45.4V212H0v-45.4c0-41.8,33.9-75.7,75.7-75.7
			c10.8,0,21,2.2,30.3,6.3c9.3-4.1,19.5-6.3,30.3-6.3C178.1,90.9,212,124.8,212,166.6z M454.2,106v106h30.3V106
			C474.5,108,464.1,108,454.2,106z M454.2,60.6v29.9c9.9,2.6,20.4,2.6,30.3,0V60.6H454.2z M696.4,90.9c-33.4,0-60.6,27.1-60.6,60.6
			V212h30.3v-60.6c0-16.7,13.6-30.3,30.3-30.3s30.3,13.6,30.3,30.3V212H757v-60.6C756.9,118,729.8,90.9,696.4,90.9z M622.2,152.9
			c0,34.3-27.8,62.1-62.1,62.1S498,187.2,498,152.9s27.8-62.1,62.1-62.1C594.4,90.9,622.2,118.7,622.2,152.9z M591.9,152.9
			c0-17.5-14.2-31.8-31.8-31.8s-31.8,14.2-31.8,31.8s14.2,31.8,31.8,31.8S591.9,170.5,591.9,152.9z M393.6,60.6h-30.3
			c0,41.8,33.9,75.7,75.7,75.7V106C413.9,106,393.6,85.7,393.6,60.6z M75.7,128.7c-1.8,0-3.5,0.1-5.2,0.4
			c-6.3,11.1-9.9,23.8-9.9,37.5V212h30.3v-45.4c0-10.7,3.7-20.6,9.9-28.3C94.1,132.3,85.3,128.7,75.7,128.7z M404.4,177.7
			c-7.1-6-10.8-14.6-10.8-23.2v-24c-6.2-4-11.7-8.8-16.6-14.2c-5.5-6.2-10.2-13.2-13.7-20.8v59.1c0,17.3,7.3,34.4,21.6,46.4
			c2.7,2.3,5.6,4.3,8.6,6.1c14,8.1,30.4,10.1,45.4,6.2v-32.4C428.3,186.9,414.4,186.1,404.4,177.7z M259.8,180.8
			c-13.2-13.2-24.4-26.8-33.1-39.7c-3.8,19.6,1.9,40.6,17,55.8c15.2,15.2,36.2,20.8,55.8,17C286.6,205.2,273,194,259.8,180.8z
			 M346.1,173.8c7.8-21.9,2.9-47.2-14.6-64.7s-42.9-22.4-64.7-14.6c-4,1.4-7.8,3.2-11.5,5.5c2,6.1,7.7,15.3,16,25.7
			c12.2-7.4,28.3-5.8,38.9,4.8c10.5,10.5,12.1,26.7,4.8,38.9c10.4,8.3,19.6,14,25.7,16C342.9,181.6,344.7,177.8,346.1,173.8z"/>
		
			<linearGradient id="SVGID_1_" gradientUnits="userSpaceOnUse" x1="496.7813" y1="66.4187" x2="274.95" y2="288.25" gradientTransform="matrix(1 0 0 -1 0 304)">
			<stop  offset="0.3" style="stop-color:#CC007E"/>
			<stop  offset="1" style="stop-color:#D9409E"/>
		</linearGradient>
		<path class="st1" d="M362.6,227.9c-12.4,12.4-56-11.1-97.4-52.5s-64.9-85-52.5-97.4c7.3-7.3,25.6-2.1,47.9,11.9
			c-5.9-2.2-10.3-2.4-12.5-0.2c-7.1,7.1,10.2,35.8,38.5,64.2c28.4,28.4,57.1,45.6,64.2,38.5c2.2-2.2,2.1-6.7-0.2-12.5
			C364.7,202.3,369.9,220.5,362.6,227.9z M560.1,137.8c-8.4,0-15.1,6.8-15.1,15.1c0,8.4,6.8,15.1,15.1,15.1
			c8.4,0,15.1-6.8,15.1-15.1C575.3,144.6,568.5,137.8,560.1,137.8z"/>
	</g>
	<g class="st2">
		<path class="st0" d="M902.7,135.5c-0.5-1.2-1.2-2.7-2-4.6c-0.8-1.8-1.7-3.8-2.7-6c-0.9-2.1-2-4.3-3-6.6c-1.1-2.3-2.1-4.4-3-6.4
			c-0.9-2-1.8-3.8-2.7-5.4c-0.8-1.6-1.5-2.8-2-3.7c-0.5,5.9-1,12.3-1.3,19.1c-0.3,6.9-0.6,13.8-0.9,20.7h-7.1
			c0.2-4.5,0.4-9,0.7-13.6c0.2-4.6,0.5-9,0.9-13.5c0.3-4.4,0.7-8.7,1-12.9c0.4-4.2,0.8-8.2,1.2-11.9h6.4c1.3,2.2,2.8,4.8,4.3,7.8
			c1.5,3,3.1,6.1,4.6,9.4s3,6.5,4.5,9.8c1.4,3.3,2.8,6.2,4,8.9c1.2-2.7,2.5-5.7,4-8.9c1.4-3.3,2.9-6.5,4.5-9.8
			c1.5-3.3,3.1-6.4,4.6-9.4c1.5-3,3-5.6,4.3-7.8h6.4c1.7,16.7,3,34,3.8,51.8h-7.1c-0.3-7-0.5-13.9-0.9-20.7
			c-0.3-6.9-0.8-13.2-1.3-19.1c-0.5,0.8-1.2,2.1-2,3.7c-0.8,1.6-1.7,3.4-2.7,5.4s-2,4.2-3,6.4c-1.1,2.3-2.1,4.5-3,6.6
			c-0.9,2.1-1.8,4.1-2.7,6c-0.8,1.8-1.5,3.4-2,4.6H902.7z"/>
		<path class="st0" d="M978.5,123.2c0,3.1-0.4,5.9-1.3,8.4c-0.9,2.5-2.2,4.6-3.8,6.4c-1.6,1.8-3.6,3.2-5.8,4.1
			c-2.2,1-4.7,1.5-7.3,1.5c-2.6,0-5.1-0.5-7.3-1.5c-2.2-1-4.2-2.4-5.8-4.1c-1.6-1.8-2.9-3.9-3.8-6.4c-0.9-2.5-1.3-5.3-1.3-8.4
			c0-3,0.4-5.8,1.3-8.3c0.9-2.5,2.2-4.7,3.8-6.5c1.6-1.8,3.6-3.2,5.8-4.2c2.2-1,4.7-1.5,7.3-1.5c2.6,0,5.1,0.5,7.3,1.5
			c2.2,1,4.2,2.4,5.8,4.2c1.6,1.8,2.9,4,3.8,6.5C978,117.4,978.5,120.2,978.5,123.2z M971.2,123.2c0-4.4-1-7.9-3-10.4
			c-2-2.6-4.6-3.9-8-3.9c-3.4,0-6.1,1.3-8,3.9s-3,6-3,10.4c0,4.4,1,7.9,3,10.4c2,2.6,4.6,3.9,8,3.9c3.4,0,6.1-1.3,8-3.9
			C970.2,131.1,971.2,127.6,971.2,123.2z"/>
		<path class="st0" d="M988.3,104.9c1.6-0.4,3.7-0.8,6.4-1.3c2.6-0.4,5.7-0.7,9.1-0.7c3.1,0,5.7,0.4,7.7,1.3c2,0.9,3.7,2.1,4.9,3.7
			c1.2,1.6,2.1,3.5,2.6,5.6c0.5,2.2,0.7,4.6,0.7,7.3v21.8h-7v-20.3c0-2.4-0.2-4.4-0.5-6.1c-0.3-1.7-0.9-3.1-1.6-4.1
			c-0.7-1-1.7-1.8-3-2.3c-1.2-0.5-2.8-0.7-4.6-0.7c-0.7,0-1.5,0-2.3,0.1c-0.8,0.1-1.6,0.1-2.3,0.2c-0.7,0.1-1.4,0.2-1.9,0.3
			c-0.6,0.1-1,0.2-1.2,0.2v32.8h-7V104.9z"/>
		<path class="st0" d="M1034.6,96.8c-1.2,0-2.3-0.4-3.2-1.2c-0.9-0.8-1.3-1.9-1.3-3.3c0-1.4,0.4-2.5,1.3-3.3s1.9-1.2,3.2-1.2
			c1.2,0,2.3,0.4,3.2,1.2s1.3,1.9,1.3,3.3c0,1.4-0.4,2.5-1.3,3.3C1036.9,96.4,1035.9,96.8,1034.6,96.8z M1038.1,142.7h-7v-38.9h7
			V142.7z"/>
		<path class="st0" d="M1056.6,103.8h14.7v5.8h-14.7v17.9c0,1.9,0.2,3.6,0.4,4.8c0.3,1.3,0.7,2.3,1.3,3c0.6,0.7,1.3,1.2,2.2,1.5
			c0.9,0.3,1.9,0.4,3.1,0.4c2.1,0,3.8-0.2,5-0.7c1.3-0.5,2.2-0.8,2.7-1l1.3,5.8c-0.7,0.3-1.9,0.8-3.7,1.3c-1.7,0.5-3.7,0.8-6,0.8
			c-2.6,0-4.8-0.3-6.5-1c-1.7-0.7-3.1-1.7-4.1-3c-1-1.3-1.8-3-2.2-5c-0.4-2-0.6-4.2-0.6-6.8V93l7-1.2V103.8z"/>
		<path class="st0" d="M1113.4,123.2c0,3.1-0.4,5.9-1.3,8.4c-0.9,2.5-2.2,4.6-3.8,6.4c-1.6,1.8-3.6,3.2-5.8,4.1
			c-2.2,1-4.7,1.5-7.3,1.5c-2.6,0-5.1-0.5-7.3-1.5c-2.2-1-4.2-2.4-5.8-4.1c-1.6-1.8-2.9-3.9-3.8-6.4c-0.9-2.5-1.3-5.3-1.3-8.4
			c0-3,0.4-5.8,1.3-8.3c0.9-2.5,2.2-4.7,3.8-6.5c1.6-1.8,3.6-3.2,5.8-4.2c2.2-1,4.7-1.5,7.3-1.5c2.6,0,5.1,0.5,7.3,1.5
			c2.2,1,4.2,2.4,5.8,4.2c1.6,1.8,2.9,4,3.8,6.5C1113,117.4,1113.4,120.2,1113.4,123.2z M1106.2,123.2c0-4.4-1-7.9-3-10.4
			c-2-2.6-4.6-3.9-8-3.9c-3.4,0-6.1,1.3-8,3.9s-3,6-3,10.4c0,4.4,1,7.9,3,10.4c2,2.6,4.6,3.9,8,3.9c3.4,0,6.1-1.3,8-3.9
			C1105.2,131.1,1106.2,127.6,1106.2,123.2z"/>
		<path class="st0" d="M1137.6,103c0.6,0,1.3,0,2.1,0.1c0.8,0.1,1.5,0.2,2.3,0.3c0.7,0.1,1.4,0.3,2.1,0.4c0.6,0.1,1.1,0.2,1.4,0.3
			l-1.2,6.1c-0.5-0.2-1.5-0.4-2.7-0.7c-1.3-0.3-2.9-0.4-4.9-0.4c-1.3,0-2.6,0.1-3.8,0.4c-1.3,0.3-2.1,0.5-2.5,0.6v32.7h-7v-37.2
			c1.6-0.6,3.7-1.2,6.1-1.7C1131.8,103.2,1134.5,103,1137.6,103z"/>
		<path class="st0" d="M1155.5,96.8c-1.2,0-2.3-0.4-3.2-1.2c-0.9-0.8-1.3-1.9-1.3-3.3c0-1.4,0.4-2.5,1.3-3.3s1.9-1.2,3.2-1.2
			c1.2,0,2.3,0.4,3.2,1.2s1.3,1.9,1.3,3.3c0,1.4-0.4,2.5-1.3,3.3C1157.8,96.4,1156.8,96.8,1155.5,96.8z M1159,142.7h-7v-38.9h7
			V142.7z"/>
		<path class="st0" d="M1171,104.9c1.6-0.4,3.7-0.8,6.4-1.3c2.6-0.4,5.7-0.7,9.1-0.7c3.1,0,5.7,0.4,7.7,1.3c2,0.9,3.7,2.1,4.9,3.7
			c1.2,1.6,2.1,3.5,2.6,5.6s0.7,4.6,0.7,7.3v21.8h-7v-20.3c0-2.4-0.2-4.4-0.5-6.1c-0.3-1.7-0.9-3.1-1.6-4.1c-0.7-1-1.7-1.8-3-2.3
			c-1.2-0.5-2.8-0.7-4.6-0.7c-0.7,0-1.5,0-2.3,0.1c-0.8,0.1-1.6,0.1-2.3,0.2c-0.7,0.1-1.4,0.2-1.9,0.3c-0.6,0.1-1,0.2-1.2,0.2v32.8
			h-7V104.9z"/>
		<path class="st0" d="M1238.3,138.8c-0.6,0.4-1.8,0.9-3.5,1.5c-1.7,0.6-3.7,0.9-6,0.9c-2.3,0-4.5-0.4-6.6-1.1
			c-2.1-0.7-3.9-1.9-5.4-3.5c-1.5-1.6-2.8-3.5-3.7-5.9c-0.9-2.3-1.3-5.1-1.3-8.4c0-2.8,0.4-5.4,1.3-7.8c0.8-2.4,2.1-4.4,3.7-6.1
			c1.6-1.7,3.6-3.1,5.9-4c2.3-1,5-1.5,7.9-1.5c3.2,0,6.1,0.2,8.5,0.7c2.4,0.5,4.4,0.9,6.1,1.3v34.7c0,6-1.5,10.3-4.6,13
			c-3.1,2.7-7.8,4-14.1,4c-2.4,0-4.7-0.2-6.9-0.6c-2.2-0.4-4.1-0.9-5.6-1.4l1.3-6.1c1.4,0.5,3.1,1,5.1,1.5c2,0.4,4.1,0.6,6.3,0.6
			c4.1,0,7.1-0.8,8.9-2.5c1.8-1.6,2.7-4.3,2.7-7.9V138.8z M1238.2,109.9c-0.7-0.2-1.6-0.4-2.8-0.6c-1.2-0.2-2.8-0.3-4.7-0.3
			c-3.7,0-6.6,1.2-8.6,3.7c-2,2.4-3,5.7-3,9.7c0,2.2,0.3,4.2,0.9,5.8c0.6,1.6,1.3,2.9,2.3,4c1,1,2.1,1.8,3.4,2.3
			c1.3,0.5,2.6,0.7,3.9,0.7c1.8,0,3.5-0.3,5.1-0.8c1.5-0.5,2.8-1.1,3.7-1.8V109.9z"/>
	</g>
	<g class="st2">
		<path class="st0" d="M879.5,160.3h7.3v51.8h-7.3V160.3z"/>
		<path class="st0" d="M899.1,174.3c1.6-0.4,3.7-0.8,6.4-1.3c2.6-0.4,5.7-0.7,9.1-0.7c3.1,0,5.7,0.4,7.7,1.3c2,0.9,3.7,2.1,4.9,3.7
			c1.2,1.6,2.1,3.5,2.6,5.6c0.5,2.2,0.7,4.6,0.7,7.3v21.8h-7v-20.3c0-2.4-0.2-4.4-0.5-6.1c-0.3-1.7-0.9-3.1-1.6-4.1
			c-0.7-1-1.7-1.8-3-2.3c-1.2-0.5-2.8-0.7-4.6-0.7c-0.7,0-1.5,0-2.3,0.1c-0.8,0.1-1.6,0.1-2.3,0.2c-0.7,0.1-1.4,0.2-1.9,0.3
			c-0.6,0.1-1,0.2-1.2,0.2v32.8h-7V174.3z"/>
		<path class="st0" d="M942.1,174.3c1.6-0.4,3.7-0.8,6.4-1.3c2.6-0.4,5.7-0.7,9.1-0.7c3.1,0,5.7,0.4,7.7,1.3c2,0.9,3.7,2.1,4.9,3.7
			c1.2,1.6,2.1,3.5,2.6,5.6c0.5,2.2,0.7,4.6,0.7,7.3v21.8h-7v-20.3c0-2.4-0.2-4.4-0.5-6.1c-0.3-1.7-0.9-3.1-1.6-4.1s-1.7-1.8-3-2.3
			c-1.2-0.5-2.8-0.7-4.6-0.7c-0.7,0-1.5,0-2.3,0.1c-0.8,0.1-1.6,0.1-2.3,0.2c-0.7,0.1-1.4,0.2-1.9,0.3c-0.6,0.1-1,0.2-1.2,0.2v32.8
			h-7V174.3z"/>
		<path class="st0" d="M1019.3,192.6c0,3.1-0.4,5.9-1.3,8.4c-0.9,2.5-2.2,4.6-3.8,6.4c-1.6,1.8-3.6,3.2-5.8,4.1
			c-2.2,1-4.7,1.5-7.3,1.5c-2.6,0-5.1-0.5-7.3-1.5c-2.2-1-4.2-2.4-5.8-4.1c-1.6-1.8-2.9-3.9-3.8-6.4c-0.9-2.5-1.3-5.3-1.3-8.4
			c0-3,0.4-5.8,1.3-8.3c0.9-2.5,2.2-4.7,3.8-6.5c1.6-1.8,3.6-3.2,5.8-4.2c2.2-1,4.7-1.5,7.3-1.5c2.6,0,5.1,0.5,7.3,1.5
			c2.2,1,4.2,2.4,5.8,4.2c1.6,1.8,2.9,4,3.8,6.5C1018.8,186.8,1019.3,189.6,1019.3,192.6z M1012,192.6c0-4.4-1-7.9-3-10.4
			s-4.6-3.9-8-3.9c-3.4,0-6.1,1.3-8,3.9c-2,2.6-3,6-3,10.4c0,4.4,1,7.9,3,10.4c2,2.6,4.6,3.9,8,3.9c3.4,0,6.1-1.3,8-3.9
			C1011.1,200.5,1012,197,1012,192.6z"/>
		<path class="st0" d="M1058.4,173.2c-1.9,7.3-4.2,14.3-6.8,20.9c-2.6,6.7-5.1,12.7-7.6,17.9h-6.3c-2.4-5.3-5-11.3-7.6-17.9
			c-2.6-6.7-4.9-13.7-6.8-20.9h7.5c0.6,2.4,1.3,5,2.1,7.8c0.8,2.8,1.7,5.5,2.6,8.2c0.9,2.7,1.9,5.3,2.8,7.9c0.9,2.5,1.8,4.8,2.7,6.8
			c0.8-2,1.7-4.3,2.7-6.8c0.9-2.5,1.9-5.2,2.8-7.9s1.8-5.5,2.6-8.2c0.8-2.8,1.5-5.4,2.1-7.8H1058.4z"/>
		<path class="st0" d="M1078.1,172.2c2.8,0,5.1,0.4,7.1,1.1s3.5,1.7,4.6,3.1c1.2,1.3,2,2.9,2.5,4.7c0.5,1.8,0.7,3.8,0.7,6v24.3
			c-0.6,0.1-1.4,0.2-2.5,0.4c-1.1,0.2-2.3,0.3-3.6,0.5s-2.8,0.3-4.4,0.4c-1.6,0.1-3.1,0.2-4.7,0.2c-2.2,0-4.2-0.2-6.1-0.7
			c-1.8-0.4-3.4-1.2-4.8-2.1s-2.4-2.3-3.1-3.9c-0.7-1.6-1.1-3.5-1.1-5.8c0-2.1,0.4-4,1.3-5.5c0.9-1.5,2.1-2.8,3.6-3.7
			c1.5-0.9,3.2-1.6,5.2-2.1c2-0.4,4.1-0.7,6.3-0.7c0.7,0,1.4,0,2.2,0.1c0.7,0.1,1.5,0.2,2.1,0.3c0.7,0.1,1.3,0.2,1.8,0.3
			c0.5,0.1,0.8,0.2,1,0.2v-1.9c0-1.1-0.1-2.3-0.4-3.4c-0.3-1.1-0.7-2.1-1.3-3c-0.6-0.9-1.5-1.6-2.7-2.1c-1.1-0.5-2.6-0.8-4.4-0.8
			c-2.3,0-4.3,0.2-6,0.5c-1.7,0.3-3,0.7-3.9,1l-0.8-5.8c0.9-0.4,2.4-0.8,4.5-1.2C1073.4,172.4,1075.7,172.2,1078.1,172.2z
			 M1078.7,207.1c1.6,0,3.1,0,4.4-0.1c1.3-0.1,2.3-0.2,3.2-0.4V195c-0.5-0.2-1.3-0.5-2.4-0.6c-1.1-0.2-2.5-0.3-4.1-0.3
			c-1,0-2.2,0.1-3.3,0.2s-2.2,0.5-3.2,0.9c-1,0.5-1.8,1.1-2.4,1.9c-0.6,0.8-1,1.9-1,3.3c0,2.5,0.8,4.2,2.4,5.2
			C1073.8,206.6,1076,207.1,1078.7,207.1z"/>
		<path class="st0" d="M1111.1,173.2h14.7v5.8h-14.7V197c0,1.9,0.1,3.6,0.4,4.8c0.3,1.3,0.7,2.3,1.3,3c0.6,0.7,1.3,1.2,2.2,1.5
			c0.9,0.3,1.9,0.4,3.1,0.4c2.1,0,3.8-0.2,5-0.7s2.2-0.8,2.7-1l1.3,5.8c-0.7,0.3-1.9,0.8-3.7,1.3c-1.7,0.5-3.7,0.8-6,0.8
			c-2.6,0-4.8-0.3-6.5-1s-3.1-1.7-4.2-3c-1-1.3-1.8-3-2.2-5c-0.4-2-0.6-4.2-0.6-6.8v-34.7l7-1.2V173.2z"/>
		<path class="st0" d="M1138.1,166.2c-1.2,0-2.3-0.4-3.2-1.2c-0.9-0.8-1.3-1.9-1.3-3.3c0-1.4,0.4-2.5,1.3-3.3s1.9-1.2,3.2-1.2
			s2.3,0.4,3.2,1.2s1.3,1.9,1.3,3.3c0,1.4-0.4,2.5-1.3,3.3C1140.4,165.8,1139.3,166.2,1138.1,166.2z M1141.6,212.1h-7v-38.9h7V212.1
			z"/>
		<path class="st0" d="M1187.9,192.6c0,3.1-0.4,5.9-1.3,8.4c-0.9,2.5-2.2,4.6-3.8,6.4s-3.6,3.2-5.8,4.1c-2.2,1-4.7,1.5-7.3,1.5
			c-2.6,0-5.1-0.5-7.3-1.5c-2.2-1-4.2-2.4-5.8-4.1c-1.6-1.8-2.9-3.9-3.8-6.4c-0.9-2.5-1.3-5.3-1.3-8.4c0-3,0.4-5.8,1.3-8.3
			c0.9-2.5,2.2-4.7,3.8-6.5c1.6-1.8,3.6-3.2,5.8-4.2c2.2-1,4.7-1.5,7.3-1.5c2.6,0,5.1,0.5,7.3,1.5c2.2,1,4.2,2.4,5.8,4.2
			c1.6,1.8,2.9,4,3.8,6.5C1187.4,186.8,1187.9,189.6,1187.9,192.6z M1180.6,192.6c0-4.4-1-7.9-3-10.4s-4.6-3.9-8-3.9
			c-3.4,0-6.1,1.3-8,3.9c-2,2.6-3,6-3,10.4c0,4.4,1,7.9,3,10.4c2,2.6,4.6,3.9,8,3.9c3.4,0,6.1-1.3,8-3.9
			C1179.7,200.5,1180.6,197,1180.6,192.6z"/>
		<path class="st0" d="M1197.7,174.3c1.6-0.4,3.7-0.8,6.4-1.3c2.6-0.4,5.7-0.7,9.1-0.7c3.1,0,5.7,0.4,7.7,1.3c2,0.9,3.7,2.1,4.9,3.7
			c1.2,1.6,2.1,3.5,2.6,5.6s0.7,4.6,0.7,7.3v21.8h-7v-20.3c0-2.4-0.2-4.4-0.5-6.1c-0.3-1.7-0.9-3.1-1.6-4.1c-0.7-1-1.7-1.8-3-2.3
			c-1.2-0.5-2.8-0.7-4.6-0.7c-0.7,0-1.5,0-2.3,0.1c-0.8,0.1-1.6,0.1-2.3,0.2c-0.7,0.1-1.4,0.2-1.9,0.3c-0.6,0.1-1,0.2-1.2,0.2v32.8
			h-7V174.3z"/>
	</g>
	<path class="st0" d="M817.5,302.8L817.5,302.8c-1.7,0-3-1.4-3-3V3c0-1.7,1.4-3,3-3l0,0c1.7,0,3,1.4,3,3v296.7
		C820.5,301.4,819.2,302.8,817.5,302.8z"/>
</g>
</svg>
